<svg data-v-fde0c5aa="" xmlns="http://www.w3.org/2000/svg" viewBox="0 0 300 300" class="iconAbove"><!----><defs data-v-fde0c5aa=""><!----></defs><rect data-v-fde0c5aa="" fill="none" x="0" y="0" width="300px" height="300px" class="logo-background-square"></rect><defs data-v-fde0c5aa=""><!----></defs><g data-v-fde0c5aa="" id="3d100738-6589-42e3-9989-f4d63093d620" fill="#022239" transform="matrix(4.684684684684686,0,0,4.684684684684686,20.609008986670663,172.070267857732)"><path d="M1.01 13.47L2.87 2.87L1.74 2.87L-0.13 13.47ZM6.08 13.47L7.94 2.87L6.90 2.87L5.95 8.36L5.89 8.36C5.89 8.01 5.88 7.70 5.61 2.87L4.33 2.87L2.46 13.47L3.49 13.47C4.58 7.24 4.69 6.58 4.77 5.99L4.83 5.99C4.86 6.57 4.90 7.21 5.50 13.47ZM11.10 13.47L12.96 2.87L11.93 2.87L10.98 8.36L10.92 8.36C10.92 8.01 10.91 7.70 10.64 2.87L9.35 2.87L7.49 13.47L8.51 13.47C9.60 7.24 9.72 6.58 9.80 5.99L9.86 5.99C9.88 6.57 9.93 7.21 10.53 13.47ZM14.17 13.65C15.02 13.65 15.46 13.44 15.81 12.78C16.14 12.14 16.35 11.49 16.88 8.48C17.36 5.81 17.49 4.80 17.49 4.19C17.49 3.12 17.23 2.69 16.10 2.69C15.25 2.69 14.81 2.91 14.48 3.56C14.13 4.21 13.93 4.83 13.43 7.67C12.92 10.51 12.80 11.52 12.80 12.14C12.80 13.24 13.05 13.65 14.17 13.65ZM15.02 11.89C14.90 12.22 14.74 12.33 14.41 12.33C13.97 12.33 13.93 12.08 13.93 11.65C13.93 11.24 14.04 10.56 14.50 7.92C14.98 5.18 15.08 4.82 15.27 4.37C15.40 4.05 15.57 3.92 15.89 3.92C16.23 3.92 16.37 4.05 16.37 4.55C16.37 4.96 16.30 5.54 15.83 8.23C15.33 11.07 15.20 11.42 15.02 11.89ZM19.71 13.47L22.61 2.87L21.42 2.87C19.50 10.50 19.31 11.23 19.15 11.93L19.07 11.93C19.17 11.23 19.22 10.50 19.99 2.87L18.82 2.87L17.95 13.47ZM25.03 13.47L26.01 2.87L24.12 2.87L21.31 13.47L22.46 13.47L23.18 10.58L24.21 10.58L23.91 13.47ZM24.36 9.37L23.44 9.37C24.58 4.96 24.70 4.55 24.79 4.13L24.88 4.13C24.84 4.55 24.81 4.96 24.36 9.37ZM27.78 13.47L29.41 4.13L30.59 4.13L30.81 2.87L27.34 2.87L27.12 4.13L28.29 4.13L26.66 13.47ZM33.07 13.47L33.29 12.15L31.47 12.15L32.09 8.67L33.89 8.67L34.10 7.46L32.30 7.46L32.89 4.13L34.72 4.13L34.94 2.87L32.00 2.87L30.14 13.47ZM39.96 13.47L40.18 12.15L39.12 12.15L40.75 2.87L39.80 2.87L39.59 3.79C39.45 4.44 39.28 4.55 38.81 4.55L38.19 4.55L38.00 5.67L39.13 5.67L37.98 12.15L36.86 12.15L36.64 13.47ZM42.55 13.47L43.15 10.04L44.00 10.04C45.22 10.04 45.71 9.07 46.12 6.79C46.34 5.50 46.42 4.82 46.42 4.30C46.42 3.23 46.07 2.87 45.28 2.87L43.30 2.87L41.44 13.47ZM43.36 8.81L44.18 4.12L44.86 4.12C45.09 4.12 45.26 4.19 45.26 4.75C45.26 5.08 45.21 5.60 45.02 6.58C44.73 8.30 44.42 8.81 43.97 8.81ZM49.22 13.47L50.20 2.87L48.31 2.87L45.50 13.47L46.65 13.47L47.38 10.58L48.40 10.58L48.10 13.47ZM48.55 9.37L47.63 9.37C48.78 4.96 48.89 4.55 48.99 4.13L49.07 4.13C49.03 4.55 49.00 4.96 48.55 9.37ZM52.19 13.47L53.00 8.83L55.36 2.94L55.37 2.87L54.25 2.87C53.00 6.15 52.85 6.61 52.74 6.94L52.65 6.94C52.65 6.61 52.67 6.15 52.60 2.87L51.51 2.87L51.49 2.94L51.80 8.85L50.99 13.47Z"></path></g><defs data-v-fde0c5aa=""><linearGradient data-v-fde0c5aa="" gradientTransform="rotate(25)" id="6e341bfb-5b74-410a-8820-be751ad97a8a" x1="0%" y1="0%" x2="100%" y2="0%"><stop data-v-fde0c5aa="" offset="0%" stop-color="#000A68" stop-opacity="1"></stop><stop data-v-fde0c5aa="" offset="100%" stop-color="#00C4EE" stop-opacity="1"></stop></linearGradient></defs><g data-v-fde0c5aa="" id="99fe869b-14a8-4add-bb26-4c4b167703d9" stroke="none" fill="url(#6e341bfb-5b74-410a-8820-be751ad97a8a)" transform="matrix(5.480800564466959,0,0,5.480800564466959,62.30719096852866,27.63512104093504)"><path d="M16 19.586l7.496-12.954H8.504zM7.496 12.414L0 25.368h14.992zM24.504 12.414l-7.496 12.954H32z"></path></g><!----></svg>